<mxfile host="app.diagrams.net" modified="2023-09-27T02:11:17.121Z" agent="Mozilla/5.0 (X11; Linux x86_64) AppleWebKit/537.36 (KHTML, like Gecko) Chrome/116.0.0.0 Safari/537.36" version="21.8.2" etag="x68tZuZkCmchaK-Y8Hir" type="github">
  <diagram name="Page-1" id="dPX6eG1f9cdaJCkyswQw">
    <mxGraphModel>
      <root>
        <mxCell id="0" />
        <mxCell id="1" parent="0" />
      </root>
    </mxGraphModel>
  </diagram>
</mxfile>
